
        <svg xmlns="http://www.w3.org/2000/svg" xmlns:xlink="http://www.w3.org/1999/xlink" version="1.1" width="3156.657963446475" 
        height="863.4424775389739" viewBox="0 0 3156.657963446475 863.4424775389739">
			
			<g transform="scale(7.83289817232376) translate(10, 10)">
				<defs id="SvgjsDefs8839"></defs><g id="SvgjsG8840" featureKey="symbolFeature-0" transform="matrix(0.17755375993389355,0,0,0.17755375993389355,-0.3506686589365937,-0.3551075198677871)" fill="#14f8e9"><g xmlns="http://www.w3.org/2000/svg"><path d="M306.6,330.2c-1.2-30.7-29.4-54.4-61.7-47.6c-18.5,3.9-33.9,18.9-38.3,37.3c-7.1,30.1,12.6,57.1,40,62.2   c-6.9,14.4-17.6,23.1-32.2,25.6c-5.2,0.9-9.2,4.8-9.2,10v30.8c0,5.8,5,10.8,10.8,10.2c55.7-5.1,89-50.4,90.5-123.4   c0.1-1.1,0.3-2.1,0.3-3.1c0-0.3-0.1-0.5-0.1-0.8c0-0.4,0.1-0.8,0.1-1.3H306.6z"></path><path d="M256,78.2c-28.1,0-50.8,22.7-50.8,50.8c0,28.1,22.7,50.8,50.8,50.8c28.1,0,50.8-22.7,50.8-50.8   C306.8,100.9,284.1,78.2,256,78.2z"></path><path d="M144.2,2H129C86.9,2,52.8,36.1,52.8,78.2v116.5L9.4,238c-9.9,9.9-9.9,26,0,35.9l43.4,43.4v116.5   c0,42.1,34.1,76.2,76.2,76.2h15.2c5.6,0,10.2-4.5,10.2-10.2v-30.5c0-5.6-4.5-10.2-10.2-10.2H129c-14,0-25.4-11.4-25.4-25.4v-127   c0-6.7-2.7-13.2-7.4-18L63.3,256l32.8-32.8c4.8-4.8,7.4-11.2,7.4-18v-127c0-14,11.4-25.4,25.4-25.4h15.2c5.6,0,10.2-4.5,10.2-10.2   V12.2C154.4,6.5,149.9,2,144.2,2z"></path><path d="M502.6,238l-43.4-43.4V78.2C459.2,36.1,425.1,2,383,2h-15.2c-5.6,0-10.2,4.5-10.2,10.2v30.5c0,5.6,4.5,10.2,10.2,10.2H383   c14,0,25.4,11.4,25.4,25.4v127c0,6.7,2.7,13.2,7.4,18l32.8,32.8l-32.8,32.8c-4.8,4.8-7.4,11.2-7.4,18v127c0,14-11.4,25.4-25.4,25.4   h-15.2c-5.6,0-10.2,4.5-10.2,10.2v30.5c0,5.6,4.5,10.2,10.2,10.2H383c42.1,0,76.2-34.1,76.2-76.2V317.3l43.4-43.4   C512.5,264,512.5,248,502.6,238z"></path></g></g><g id="SvgjsG8841" featureKey="textGroupContainer" transform="matrix(1,0,0,1,110,29)" fill="#14f8e9"><rect xmlns="http://www.w3.org/2000/svg" y="0" x="0" height="1" width="1" opacity="0"></rect><rect xmlns="http://www.w3.org/2000/svg" y="31.065217391304348" x="0" width="42.5" height="2"></rect><rect xmlns="http://www.w3.org/2000/svg" y="31.065217391304348" x="230.5" width="42.5" height="2"></rect></g><g id="SvgjsG8842" featureKey="nameFeature-0" transform="matrix(0.6266736201344911,0,0,0.6266736201344911,116.57386144824167,8.081523855263455)" fill="#ffffff"><path d="M8.2 16.4 l-2.84 0 l2.6 -4.96 l8.8 0 l8.96 28.56 l-6.88 0 l-1.6 -5.72 l-1.56 0.12 l-5.56 0 l-1.36 -0.12 l-1.64 5.72 l-6.44 0 z M15.68 28.84 l-2.64 -9.52 l-2.8 9.52 l5.44 0 z M30.16 16.4 l-3.8 0 l2.6 -5 l6.56 0 l9.48 15.68 l0.24 0.68 l0 -16.36 l6.24 0 l0 28.6 l-5.32 0 l-9.6 -15.8 l-0.2 -0.6 l0 16.4 l-6.2 0 l0 -23.6 z M72.28 29.759999999999998 l-4.2 -0.000039062 l2.64 -5.12 l7.76 0 l0 14.48 c-1.5467 0.53332 -3.0334 0.88664 -4.46 1.06 s-2.6734 0.26 -3.74 0.26 c-2.3467 0 -4.3868 -0.36 -6.12 -1.08 s-3.1733 -1.72 -4.32 -3 s-2 -2.8133 -2.56 -4.6 s-0.84 -3.7467 -0.84 -5.88 s0.29332 -4.1068 0.88 -5.92 s1.4467 -3.38 2.58 -4.7 s2.54 -2.3467 4.22 -3.08 s3.6 -1.1 5.76 -1.1 c1.2533 0 2.46 0.09332 3.62 0.28 s2.46 0.57336 3.9 1.16 l-2.72 5 c-0.50668 -0.21332 -1.12 -0.38 -1.84 -0.5 s-1.4933 -0.18 -2.32 -0.18 c-2.3733 0 -4.1668 0.74668 -5.38 2.24 s-1.82 3.76 -1.82 6.8 s0.6 5.2668 1.8 6.68 s3.0133 2.12 5.44 2.12 c0.64 0 1.2133 -0.05332 1.72 -0.16 l0 -4.76 z M83 11.399999999999999 l16.84 0 c-0.26668 1.0133 -0.53336 1.9733 -0.80004 2.88 s-0.53336 1.84 -0.80004 2.8 l-8.8 0 c0 0.10668 0.01332 0.26 0.04 0.46 s0.04 0.35332 0.04 0.46 l0 4.2 l8.08 0 l0 5.72 l-8.08 0 l0 5.48 l-0.08 0.92 l10.56 0 l0 5.68 l-17 0 l0 -28.6 z M104.16 11.399999999999999 l6.36 0 l0 22.84 l4.6 0 l1 0.12 l0 -2.72 l5.4 -2.52 l0 10.88 l-17.36 0 l0 -28.6 z M155.07999999999998 39.32 c-1.12 0.45332 -2.1933 0.75328 -3.22 0.89996 s-2.1667 0.22 -3.42 0.22 c-2.2667 0 -4.2532 -0.36 -5.96 -1.08 s-3.1267 -1.7267 -4.26 -3.02 s-1.9866 -2.8333 -2.56 -4.62 s-0.86 -3.7467 -0.86 -5.88 s0.29332 -4.1068 0.88 -5.92 s1.4467 -3.3733 2.58 -4.68 s2.54 -2.3267 4.22 -3.06 s3.6 -1.1 5.76 -1.1 c1.2533 0 2.3866 0.12 3.4 0.36 s2 0.57332 2.96 1 l-1.64 5.32 c-0.53332 -0.24 -1.1266 -0.45332 -1.78 -0.64 s-1.4333 -0.28 -2.34 -0.28 c-4.7468 0 -7.12 3 -7.12 9 c0 3.0133 0.61332 5.24 1.84 6.68 s3.12 2.16 5.68 2.16 c0.85332 0 1.6066 -0.06 2.26 -0.18 s1.3 -0.3 1.94 -0.54 z M168.88000000000002 40.44 c-2.1867 0 -4.0468 -0.37332 -5.58 -1.12 s-2.7866 -1.7734 -3.76 -3.08 s-1.6866 -2.86 -2.14 -4.66 s-0.68 -3.7667 -0.68 -5.9 s0.22668 -4.1 0.68 -5.9 s1.1666 -3.3467 2.14 -4.64 s2.2266 -2.3 3.76 -3.02 s3.3933 -1.08 5.58 -1.08 s4.0468 0.36 5.58 1.08 s2.7866 1.7267 3.76 3.02 s1.68 2.84 2.12 4.64 s0.66 3.7667 0.66 5.9 s-0.22 4.1 -0.66 5.9 s-1.1467 3.3533 -2.12 4.66 s-2.2266 2.3334 -3.76 3.08 s-3.3933 1.12 -5.58 1.12 z M168.88000000000002 34.84 c1.84 0 3.1667 -0.76 3.98 -2.28 s1.22 -3.8133 1.22 -6.88 s-0.39332 -5.32 -1.18 -6.76 s-2.1134 -2.16 -3.98 -2.16 c-1.8933 0 -3.2466 0.72 -4.06 2.16 s-1.22 3.6933 -1.22 6.76 s0.40668 5.36 1.22 6.88 s2.1533 2.28 4.02 2.28 z M185.28000000000003 11.64 c1.28 -0.16 2.4533 -0.28668 3.52 -0.38 s2.2 -0.14 3.4 -0.14 c1.4667 0 2.9267 0.14 4.38 0.42 s2.7533 0.76668 3.9 1.46 s2.0734 1.6266 2.78 2.8 s1.06 2.6666 1.06 4.48 c0 1.04 -0.14 1.9733 -0.42 2.8 s-0.62668 1.5534 -1.04 2.18 s-0.87332 1.1734 -1.38 1.64 s-1 0.86 -1.48 1.18 l-0.2 0.12 l0.54 0.88 l1.32 2.2 l1.7 2.84 l1.7 2.82 l1.28 2.18 l0.5 0.84 l-7.32 0 l-7.56 -13.16 l0 13.2 l-6.68 0 l0 -28.36 z M191.96000000000004 26.560000000000002 l1.4 -0.64 c0.34668 -0.16 0.76 -0.36 1.24 -0.6 s0.94668 -0.55332 1.4 -0.94 s0.84 -0.84668 1.16 -1.38 s0.48 -1.1866 0.48 -1.96 c0 -0.82668 -0.12 -1.5134 -0.36 -2.06 s-0.57332 -0.98668 -1 -1.32 s-0.92668 -0.57332 -1.5 -0.72 s-1.1933 -0.22 -1.86 -0.22 l-0.46 0 l-0.5 0.04 l0 9.8 z M209.72000000000003 11.64 c1.28 -0.16 2.4533 -0.28668 3.52 -0.38 s2.2 -0.14 3.4 -0.14 c1.4667 0 2.9267 0.14 4.38 0.42 s2.7533 0.76668 3.9 1.46 s2.0734 1.6266 2.78 2.8 s1.06 2.6666 1.06 4.48 c0 1.04 -0.14 1.9733 -0.42 2.8 s-0.62668 1.5534 -1.04 2.18 s-0.87332 1.1734 -1.38 1.64 s-1 0.86 -1.48 1.18 l-0.2 0.12 l0.54 0.88 l1.32 2.2 l1.7 2.84 l1.7 2.82 l1.28 2.18 l0.5 0.84 l-7.32 0 l-7.56 -13.16 l0 13.2 l-6.68 0 l0 -28.36 z M216.40000000000003 26.560000000000002 l1.4 -0.64 c0.34668 -0.16 0.76 -0.36 1.24 -0.6 s0.94668 -0.55332 1.4 -0.94 s0.84 -0.84668 1.16 -1.38 s0.48 -1.1866 0.48 -1.96 c0 -0.82668 -0.12 -1.5134 -0.36 -2.06 s-0.57332 -0.98668 -1 -1.32 s-0.92668 -0.57332 -1.5 -0.72 s-1.1933 -0.22 -1.86 -0.22 l-0.46 0 l-0.5 0.04 l0 9.8 z M239.68 16.4 l-2.84 0 l2.6 -4.96 l8.8 0 l8.96 28.56 l-6.88 0 l-1.6 -5.72 l-1.56 0.12 l-5.56 0 l-1.36 -0.12 l-1.64 5.72 l-6.44 0 z M247.16000000000003 28.84 l-2.64 -9.52 l-2.8 9.52 l5.44 0 z M260.44000000000005 11.399999999999999 l6.36 0 l0 22.84 l4.6 0 l1 0.12 l0 -2.72 l5.4 -2.52 l0 10.88 l-17.36 0 l0 -28.6 z M293.40000000000003 16.4 l-3.8 0 l2.6 -5 l6.56 0 l9.48 15.68 l0.24 0.68 l0 -16.36 l6.24 0 l0 28.6 l-5.32 0 l-9.6 -15.8 l-0.2 -0.6 l0 16.4 l-6.2 0 l0 -23.6 z M320.44 11.399999999999999 l6.56 -0.000078124 l0 15.28 c0 1.4933 0.06668 2.7533 0.2 3.78 s0.36 1.8534 0.68 2.48 s0.76 1.0734 1.32 1.34 s1.2667 0.4 2.12 0.4 c0.88 0 1.6 -0.13332 2.16 -0.4 s1 -0.70668 1.32 -1.32 s0.54668 -1.4333 0.68 -2.46 s0.2 -2.3 0.2 -3.82 l0 -15.28 l6.56 0 l0 16.48 c0 1.9733 -0.16668 3.7333 -0.5 5.28 s-0.91332 2.86 -1.74 3.94 s-1.94 1.9067 -3.34 2.48 s-3.18 0.86 -5.34 0.86 c-2.1333 0 -3.9 -0.28668 -5.3 -0.86 s-2.5133 -1.4 -3.34 -2.48 s-1.4067 -2.3933 -1.74 -3.94 s-0.5 -3.3067 -0.5 -5.28 l0 -16.48 z M348.52000000000004 16.4 l-3.8 0 l2.6 -5 l6.56 0 l9.48 15.68 l0.24 0.68 l0 -16.36 l6.24 0 l0 28.6 l-5.32 0 l-9.6 -15.8 l-0.2 -0.6 l0 16.4 l-6.2 0 l0 -23.6 z M375.88000000000005 11.399999999999999 l16.84 0 c-0.26668 1.0133 -0.53336 1.9733 -0.80004 2.88 s-0.53336 1.84 -0.80004 2.8 l-8.8 0 c0 0.10668 0.01332 0.26 0.04 0.46 s0.04 0.35332 0.04 0.46 l0 4.2 l8.08 0 l0 5.72 l-8.08 0 l0 5.48 l-0.08 0.92 l10.56 0 l0 5.68 l-17 0 l0 -28.6 z M403.88000000000005 34.32 l11.36 0 l0 5.68 l-18.88 0 l0 -4.8 l11.24 -18.12 l-6.24 0 l0 3.48 l-5.08 -2.76 l0 -6.4 l18.88 0 l0 4.76 z"></path></g><g id="SvgjsG8843" featureKey="sloganFeature-0" transform="matrix(1.3967831033820637,0,0,1.3967831033820637,159.2457376769853,48.306808919164645)" fill="#ffffff"><path d="M4.14 15.120000000000001 q0 -0.38 -0.02 -0.62 t-0.08 -0.42 t-0.16 -0.33 t-0.24 -0.33 q-0.3 -0.36 -0.6 -0.67 t-0.62 -0.62 t-0.65 -0.66 t-0.69 -0.79 q-0.4 -0.46 -0.47 -0.95 t-0.07 -1.19 l0 -2.46 q0 -2.72 2.56 -2.72 q1.38 0 1.94 0.67 t0.56 2.05 l0 3 l-1.42 0 l0 -2.8 q0 -0.62 -0.21 -1 t-0.83 -0.38 q-1.06 0 -1.06 1.18 l0 2.44 q0 0.52 0.07 0.76 t0.29 0.52 q0.6 0.76 1.23 1.34 t1.27 1.34 q0.22 0.26 0.36 0.52 t0.22 0.56 t0.11 0.68 t0.03 0.86 l0 2.36 q0 1.32 -0.59 2.02 t-1.97 0.7 q-1.34 0 -1.95 -0.7 t-0.61 -2.02 l0 -3.5 l1.46 0 l0 3.28 q0 0.64 0.23 1.04 t0.83 0.4 q0.58 0 0.83 -0.31 t0.25 -0.91 l0 -2.34 z M7.722 6.16 q0 -2.8 2.58 -2.8 q2.6 0 2.6 2.8 l0 11.22 q0 2.8 -2.6 2.8 q-2.58 0 -2.58 -2.8 l0 -11.22 z M11.382000000000001 6.16 q0 -1.26 -1.08 -1.26 q-1.06 0 -1.06 1.26 l0 11.22 q0 1.3 1.06 1.3 q1.08 0 1.08 -1.3 l0 -11.22 z M15.164 20 l0 -16.46 l4.46 0 l0 1.54 l-2.94 0 l0 5.86 l2.02 0 l0 1.52 l-2.02 0 l0 7.54 l-1.52 0 z M22.965999999999998 20 l0 -14.92 l-1.84 0 l0 -1.54 l5.18 0 l0 1.54 l-1.84 0 l0 14.92 l-1.5 0 z M33.788 20 q-0.1 -0.88 -0.22 -2.03 t-0.24 -2.39 l-0.24 -2.48 t-0.21 -2.3 t-0.16 -1.85 t-0.09 -1.15 q-0.02 0.36 -0.09 1.15 t-0.17 1.85 t-0.22 2.3 t-0.26 2.48 t-0.27 2.39 t-0.25 2.03 l-1.86 0 l-1.84 -16.46 l1.58 0 q0.12 1.02 0.25 2.26 t0.26 2.55 t0.24 2.59 t0.21 2.37 t0.18 1.93 t0.12 1.24 q0.04 -0.4 0.13 -1.24 t0.21 -1.93 t0.25 -2.37 t0.28 -2.59 t0.29 -2.55 t0.26 -2.26 l1.52 0 l1.24 12.94 q0.04 -0.4 0.13 -1.24 t0.21 -1.93 t0.25 -2.37 t0.28 -2.59 t0.29 -2.55 t0.26 -2.26 l1.6 0 l-2.08 16.46 l-1.84 0 z M43.74999999999999 20 l-0.36 -2.76 l-2.46 0 l-0.36 2.76 l-1.48 0 l2.26 -16.46 l1.78 0 l2.14 16.46 l-1.52 0 z M43.209999999999994 15.84 q-0.26 -2.12 -0.52 -4.19 t-0.5 -4.25 q-0.26 2.18 -0.53 4.25 t-0.55 4.19 l2.1 0 z M51.052 20 q-0.26 -1.94 -0.54 -3.77 t-0.62 -3.71 q-0.1 0.02 -0.18 0.02 l-0.18 0 l-0.82 0 l0 7.46 l-1.52 0 l0 -16.46 l2.5 0 q1.44 0 2.15 0.67 t0.71 2.29 l0 3.28 q0 1.8 -1.22 2.42 q0.4 2 0.74 3.93 t0.64 3.87 l-1.66 0 z M51.012 6.699999999999999 q0 -0.9 -0.26 -1.26 t-1.06 -0.36 l-0.98 0 l0 6.08 l1 0 q0.7 0 1 -0.33 t0.3 -1.03 l0 -3.1 z M54.714 20 l0 -16.46 l4.36 0 l0 1.54 l-2.84 0 l0 5.78 l2 0 l0 1.52 l-2 0 l0 6.12 l2.94 0 l0 1.5 l-4.46 0 z M68.478 6.380000000000001 q0 -0.62 -0.27 -0.96 t-0.81 -0.34 l-1.04 0 l0 13.42 l1.04 0 q1.08 0 1.08 -1.3 l0 -10.82 z M64.838 20 l0 -16.46 l2.56 0 q1.32 0 1.96 0.75 t0.64 2.07 l0 10.84 q0 2.8 -2.6 2.8 l-2.56 0 z M72.25999999999999 20 l0 -16.46 l4.36 0 l0 1.54 l-2.84 0 l0 5.78 l2 0 l0 1.52 l-2 0 l0 6.12 l2.94 0 l0 1.5 l-4.46 0 z M80.30199999999999 20 l-2.04 -16.46 l1.58 0 q0.12 1.02 0.27 2.33 t0.3 2.72 t0.31 2.81 t0.29 2.6 t0.22 2.1 t0.13 1.28 q0.04 -0.4 0.14 -1.29 t0.23 -2.09 t0.3 -2.6 t0.34 -2.81 t0.33 -2.72 t0.3 -2.33 l1.52 0 l-2.18 16.46 l-2.04 0 z M86.42399999999999 20 l0 -16.46 l4.36 0 l0 1.54 l-2.84 0 l0 5.78 l2 0 l0 1.52 l-2 0 l0 6.12 l2.94 0 l0 1.5 l-4.46 0 z M92.92599999999999 20 l0 -16.46 l1.52 0 l0 14.96 l2.94 0 l0 1.5 l-4.46 0 z M99.108 6.16 q0 -2.8 2.58 -2.8 q2.6 0 2.6 2.8 l0 11.22 q0 2.8 -2.6 2.8 q-2.58 0 -2.58 -2.8 l0 -11.22 z M102.768 6.16 q0 -1.26 -1.08 -1.26 q-1.06 0 -1.06 1.26 l0 11.22 q0 1.3 1.06 1.3 q1.08 0 1.08 -1.3 l0 -11.22 z M110.43 6.52 q0 -0.74 -0.3 -1.09 t-1.02 -0.35 l-1.04 0 l0 5.62 l1.06 0 q0.66 0 0.98 -0.34 t0.32 -1.1 l0 -2.74 z M106.55 20 l0 -16.46 l2.56 0 q1.44 0 2.13 0.71 t0.69 2.27 l0 2.7 q0 1.56 -0.68 2.26 t-2.12 0.7 l-1.06 0 l0 7.82 l-1.52 0 z M113.892 20 l0 -16.46 l4.36 0 l0 1.54 l-2.84 0 l0 5.78 l2 0 l0 1.52 l-2 0 l0 6.12 l2.94 0 l0 1.5 l-4.46 0 z M124.25399999999999 20 q-0.26 -1.94 -0.54 -3.77 t-0.62 -3.71 q-0.1 0.02 -0.18 0.02 l-0.18 0 l-0.82 0 l0 7.46 l-1.52 0 l0 -16.46 l2.5 0 q1.44 0 2.15 0.67 t0.71 2.29 l0 3.28 q0 1.8 -1.22 2.42 q0.4 2 0.74 3.93 t0.64 3.87 l-1.66 0 z M124.214 6.699999999999999 q0 -0.9 -0.26 -1.26 t-1.06 -0.36 l-0.98 0 l0 6.08 l1 0 q0.7 0 1 -0.33 t0.3 -1.03 l0 -3.1 z"></path></g>
			</g>
		</svg>
	